<?xml version="1.0" encoding="UTF-8" ?>
<svg
  id="Layer_2"
  xmlns="http://www.w3.org/2000/svg"
  xmlns:xlink="http://www.w3.org/1999/xlink"
  viewBox="0 0 1198.63 2033.62"
><defs><style
    >.cls-1{fill:#f7d7b0;}.cls-2{fill:#f7ddba;}.cls-3{fill:#fff;}.cls-4{fill:#aa6f3d;}.cls-5{fill:#c18152;}.cls-6{fill:#261e18;}.cls-7{fill:url(#_ÂÁ_Ï_ÌÌ_È_____ËÂÌÚ_57-2);}.cls-8{fill:url(#_ÂÁ_Ï_ÌÌ_È_____ËÂÌÚ_6);}.cls-9{fill:url(#_ÂÁ_Ï_ÌÌ_È_____ËÂÌÚ_5);}.cls-10{fill:url(#_ÂÁ_Ï_ÌÌ_È_____ËÂÌÚ_4);}.cls-11{fill:url(#_ÂÁ_Ï_ÌÌ_È_____ËÂÌÚ_3);}.cls-12{fill:url(#_ÂÁ_Ï_ÌÌ_È_____ËÂÌÚ_2);}.cls-13{fill:url(#_ÂÁ_Ï_ÌÌ_È_____ËÂÌÚ_57);}.cls-14{fill:url(#_ÂÁ_Ï_ÌÌ_È_____ËÂÌÚ_6-2);}.cls-15{fill:url(#_ÂÁ_Ï_ÌÌ_È_____ËÂÌÚ_6-5);}.cls-16{fill:url(#_ÂÁ_Ï_ÌÌ_È_____ËÂÌÚ_6-3);}.cls-17{fill:url(#_ÂÁ_Ï_ÌÌ_È_____ËÂÌÚ_6-4);}.cls-18{fill:url(#_ÂÁ_Ï_ÌÌ_È_____ËÂÌÚ_3-2);}.cls-19{fill:url(#_ÂÁ_Ï_ÌÌ_È_____ËÂÌÚ_3-4);}.cls-20{fill:url(#_ÂÁ_Ï_ÌÌ_È_____ËÂÌÚ_3-3);}.cls-21{fill:url(#_ÂÁ_Ï_ÌÌ_È_____ËÂÌÚ_3-5);}.cls-22{fill:url(#_ÂÁ_Ï_ÌÌ_È_____ËÂÌÚ_3-9);}.cls-23{fill:url(#_ÂÁ_Ï_ÌÌ_È_____ËÂÌÚ_3-8);}.cls-24{fill:url(#_ÂÁ_Ï_ÌÌ_È_____ËÂÌÚ_3-6);}.cls-25{fill:url(#_ÂÁ_Ï_ÌÌ_È_____ËÂÌÚ_3-7);}.cls-26{fill:url(#_ÂÁ_Ï_ÌÌ_È_____ËÂÌÚ_2-2);}</style><linearGradient
      id="_ÂÁ_Ï_ÌÌ_È_____ËÂÌÚ_3"
      x1="701.67"
      y1="1695.21"
      x2="493.14"
      y2="1576.83"
      gradientTransform="matrix(1, 0, 0, 1, 0, 0)"
      gradientUnits="userSpaceOnUse"
    ><stop offset="0" stop-color="#ffe5c2" /><stop
        offset=".33"
        stop-color="#ffc37b"
      /><stop offset=".62" stop-color="#efb16f" /><stop
        offset=".95"
        stop-color="#db9d65"
      /></linearGradient><linearGradient
      id="_ÂÁ_Ï_ÌÌ_È_____ËÂÌÚ_6"
      x1="341.57"
      y1="1702.6"
      x2="442.38"
      y2="1702.6"
      gradientTransform="matrix(1, 0, 0, 1, 0, 0)"
      gradientUnits="userSpaceOnUse"
    ><stop offset="0" stop-color="#ffe5c2" /><stop
        offset=".6"
        stop-color="#fff1e1"
      /></linearGradient><linearGradient
      id="_ÂÁ_Ï_ÌÌ_È_____ËÂÌÚ_3-2"
      x1="263.09"
      y1="1513.52"
      x2="435.64"
      y2="1513.52"
      xlink:href="#_ÂÁ_Ï_ÌÌ_È_____ËÂÌÚ_3"
    /><linearGradient
      id="_ÂÁ_Ï_ÌÌ_È_____ËÂÌÚ_3-3"
      x1="452.06"
      y1="1613.72"
      x2="686.4"
      y2="1216.29"
      xlink:href="#_ÂÁ_Ï_ÌÌ_È_____ËÂÌÚ_3"
    /><linearGradient
      id="_ÂÁ_Ï_ÌÌ_È_____ËÂÌÚ_6-2"
      x1="448.5"
      y1="1326.75"
      x2="250.28"
      y2="1236.94"
      xlink:href="#_ÂÁ_Ï_ÌÌ_È_____ËÂÌÚ_6"
    /><linearGradient
      id="_ÂÁ_Ï_ÌÌ_È_____ËÂÌÚ_6-3"
      x1="450.53"
      y1="1704.62"
      x2="566.15"
      y2="1704.62"
      xlink:href="#_ÂÁ_Ï_ÌÌ_È_____ËÂÌÚ_6"
    /><linearGradient
      id="_ÂÁ_Ï_ÌÌ_È_____ËÂÌÚ_4"
      x1="485.38"
      y1="1599.46"
      x2="699.09"
      y2="1237.02"
      gradientTransform="matrix(1, 0, 0, 1, 0, 0)"
      gradientUnits="userSpaceOnUse"
    ><stop offset=".33" stop-color="#ffc37b" /><stop
        offset=".62"
        stop-color="#efb16f"
      /><stop
        offset=".95"
        stop-color="#db9d65"
      /></linearGradient><linearGradient
      id="_ÂÁ_Ï_ÌÌ_È_____ËÂÌÚ_3-4"
      x1="458"
      y1="1615.31"
      x2="825.16"
      y2="1595.19"
      xlink:href="#_ÂÁ_Ï_ÌÌ_È_____ËÂÌÚ_3"
    /><linearGradient
      id="_ÂÁ_Ï_ÌÌ_È_____ËÂÌÚ_6-4"
      x1="658.38"
      y1="1824.8"
      x2="546.88"
      y2="1843.38"
      xlink:href="#_ÂÁ_Ï_ÌÌ_È_____ËÂÌÚ_6"
    /><linearGradient
      id="_ÂÁ_Ï_ÌÌ_È_____ËÂÌÚ_6-5"
      x1="358.98"
      y1="753.66"
      x2="376.6"
      y2="1209.56"
      gradientTransform="translate(199.05 -105.86) rotate(5.07)"
      xlink:href="#_ÂÁ_Ï_ÌÌ_È_____ËÂÌÚ_6"
    /><linearGradient
      id="_ÂÁ_Ï_ÌÌ_È_____ËÂÌÚ_5"
      x1="354.64"
      y1="862.15"
      x2="369.32"
      y2="1101.15"
      gradientTransform="translate(199.05 -105.86) rotate(5.07)"
      gradientUnits="userSpaceOnUse"
    ><stop offset="0" stop-color="#ffe5c2" /><stop
        offset=".6"
        stop-color="#fff1e1"
      /><stop offset=".98" stop-color="#fff" /></linearGradient><linearGradient
      id="_ÂÁ_Ï_ÌÌ_È_____ËÂÌÚ_3-5"
      x1="353.61"
      y1="938.06"
      x2="365.62"
      y2="570.88"
      gradientTransform="translate(199.05 -105.86) rotate(5.07)"
      xlink:href="#_ÂÁ_Ï_ÌÌ_È_____ËÂÌÚ_3"
    /><linearGradient
      id="_ÂÁ_Ï_ÌÌ_È_____ËÂÌÚ_3-6"
      x1="629.78"
      y1="947.11"
      x2="641.8"
      y2="579.92"
      gradientTransform="translate(199.05 -105.86) rotate(5.07)"
      xlink:href="#_ÂÁ_Ï_ÌÌ_È_____ËÂÌÚ_3"
    /><linearGradient
      id="_ÂÁ_Ï_ÌÌ_È_____ËÂÌÚ_3-7"
      x1="51.39"
      y1="928.17"
      x2="63.4"
      y2="560.98"
      gradientTransform="translate(199.05 -105.86) rotate(5.07)"
      xlink:href="#_ÂÁ_Ï_ÌÌ_È_____ËÂÌÚ_3"
    /><linearGradient
      id="_ÂÁ_Ï_ÌÌ_È_____ËÂÌÚ_2"
      x1="784.08"
      y1="404.34"
      x2="901.07"
      y2="365.35"
      gradientTransform="translate(199.05 -105.86) rotate(5.07)"
      gradientUnits="userSpaceOnUse"
    ><stop offset=".07" stop-color="#ffe5c2" /><stop
        offset="1"
        stop-color="#fff1e1"
      /></linearGradient><linearGradient
      id="_ÂÁ_Ï_ÌÌ_È_____ËÂÌÚ_57"
      x1="601.84"
      y1="489.2"
      x2="677.82"
      y2="469.05"
      gradientTransform="translate(199.05 -105.86) rotate(5.07)"
      gradientUnits="userSpaceOnUse"
    ><stop offset="0" stop-color="#ffe5c2" /><stop
        offset="1"
        stop-color="#fff1e1"
      /></linearGradient><linearGradient
      id="_ÂÁ_Ï_ÌÌ_È_____ËÂÌÚ_2-2"
      x1="-377.25"
      y1="410.18"
      x2="-260.27"
      y2="371.18"
      gradientTransform="translate(-243.1 -144.93) rotate(-174.93) scale(1 -1)"
      xlink:href="#_ÂÁ_Ï_ÌÌ_È_____ËÂÌÚ_2"
    /><linearGradient
      id="_ÂÁ_Ï_ÌÌ_È_____ËÂÌÚ_57-2"
      x1="-559.49"
      y1="495.04"
      x2="-483.51"
      y2="474.88"
      gradientTransform="translate(-243.1 -144.93) rotate(-174.93) scale(1 -1)"
      xlink:href="#_ÂÁ_Ï_ÌÌ_È_____ËÂÌÚ_57"
    /><linearGradient
      id="_ÂÁ_Ï_ÌÌ_È_____ËÂÌÚ_3-8"
      x1="357.87"
      y1="994.31"
      x2="372.85"
      y2="446.87"
      gradientTransform="translate(199.05 -105.86) rotate(5.07)"
      xlink:href="#_ÂÁ_Ï_ÌÌ_È_____ËÂÌÚ_3"
    /><linearGradient
      id="_ÂÁ_Ï_ÌÌ_È_____ËÂÌÚ_3-9"
      x1="753.8"
      y1="2015.06"
      x2="845.17"
      y2="1796.28"
      xlink:href="#_ÂÁ_Ï_ÌÌ_È_____ËÂÌÚ_3"
    /></defs><g id="_ÎÓÈ_1"><g><g><path
          class="cls-2"
          d="M450.53,1780.07c-25.57-14.78-64.54,25.3-68.58,45.23-4.04,19.93,41.77,21.28,41.77,21.28l156.4-34.65s-74.49,0-129.59-31.86Z"
        /><path
          class="cls-11"
          d="M527.92,1368.83c-168.2,24.38-218.81,166.81-181.81,281.53,45.27,140.39,157.77,161.86,285.76,159.5,127.99-2.36-103.95-441.03-103.95-441.03Z"
        /><path
          class="cls-8"
          d="M341.92,1539.01s22.03,118.25,27.55,168.84c5.52,50.59,5.75,79.95,5.75,79.95,0,0-37.63,21.73-33.3,56.08,4.33,34.36,66.31,20.21,87.86,14.82,21.56-5.39,11.15-202.51,.52-304.36l-16.02,45.68-72.37-61.01Z"
        /><path
          class="cls-18"
          d="M263.09,1210.26c30.43,53.36,77.1,311.92,97.31,436.73,20.21,124.81,14.82,140.8,14.82,140.8,0,0-3.87,28.46,25.43,28.97,29.3,.51,33.51-21.56,34.52-76.63,1.01-55.07,2.36-187.78-18.86-282.26-21.22-94.48-153.22-247.62-153.22-247.62Z"
        /><path
          class="cls-20"
          d="M635.85,966.07c-19.2,46.48,72.37,257.92,130.3,321.25,40.52,44.29,106.19,91.25,168.49,216.88,64.72,130.53-11.08,301.84-238.78,321.09-227.69,19.25-232.98-133.19-247.23-223.26-17.18-108.62-148.88-263.09-148.88-409.08s48.5-199.89,44.46-255.13c-4.04-55.24,29.64-127.99,203.44-110.48,173.8,17.51,88.18,138.72,88.18,138.72Z"
        /><path
          class="cls-14"
          d="M509.94,1778.12c-52.21-26.53-44.12-196.49-196.7-448.4-47.85-78.99-69.72-197.55-69.72-197.55l40.42,12.13-30.31-65.68s74.55-77.95,90.6-140.79c16.06-62.84,158.13-38.25,191.48,28.25,33.35,66.5,25.07,10.24,25.07,10.24l-9.98,29.82s30.58,51.59,39.96,189.91c0,0-62.19,23.59-107.24,164.08-44.74,139.52,26.42,418,26.42,418Z"
        /><path
          class="cls-16"
          d="M458.07,1539.01s7.96,125.61,13.48,176.2c5.52,50.59-.62,73.82-.62,73.82,0,0-24.21,24.53-19.88,58.89,4.33,34.36,66.31,20.21,87.86,14.82,21.56-5.39,5.39-151.57,27.24-305l-42.74,46.32-65.35-65.05Z"
        /><path
          class="cls-10"
          d="M521.77,1335.53c-30.1,33.85-63.7,81.93-64.03,172.2-.34,90.27,13.42,237.39,15.44,265.08,2.02,27.7,42.71-1.61,62.76-48.11,19.23-44.61,33.29-216.97,42.05-276.25,8.76-59.28,6.03-89.36-7.41-119.91-13.44-30.55-34.15-9.49-48.8,6.99Z"
        /><path
          class="cls-19"
          d="M888.53,1428.64c-107.13-117.65-317.15-47.89-367.81,63.51-50.66,111.4-29.64,223.58,17.51,285.97,47.16,62.39,160.33,63.24,249.25,47.32,88.92-15.92,174.99-88.61,172.58-190.06-2.15-90.75-31.24-162.49-71.54-206.75Z"
        /><path
          class="cls-17"
          d="M787.48,1825.44s-116.62,20.46-169.13,33.93c-52.5,13.47-86.19,17.51-97.98,2.69-11.79-14.82,32.59-51.53,45.77-52.04,13.18-.51,55.62,14.83,112.2,16.93s109.13-1.52,109.13-1.52Z"
        /></g><g><path
          class="cls-15"
          d="M803,833.28c-.81-19.17-53.54-172.65-68.82-210.2-26.72-65.67-76.34-122.06-220.07-134.18-143.62-13.38-194.99,38.86-240.4,93.31-15.61,18.72-109.91,192.32-109.71,195.36,3.8,57.03,96.73,269.49,291.85,291.21v.12c1.98,.18,3.32,.26,4.98,.39,1.66,.17,4.98,.5,4.98,.5v-.12c197.91,13.17,339.6-179.28,337.18-236.38Z"
        /><path
          class="cls-9"
          d="M613.24,984.24c-2.87-71.96-95.62-201.41-85.32-257.11,10-54.05-26.85-88.55-26.85-88.55,0,0-42.34,27.47-42.01,82.44,.34,56.64-113.78,167.73-129.27,238.06-15.5,70.33,91.11,87.6,134.72,91.47,43.61,3.87,151.6,5.65,148.73-66.32Z"
        /><path
          class="cls-21"
          d="M520.76,966.07c-20.55-72.2,15.56-201.54,73.6-251.35,58.04-49.81,133.02-62.76,170.81-4.44,0,0-32.49-116.55-87.96-162.1-55.47-45.55-135.08-61.86-221.82-60.94-86.73,.91-146.97,28.03-242.07,179.28,0,0,53.07-51.86,128.96-24.59,39.62,14.24,68.89,48.9,86.75,110.07,27.23,93.31-4.98,205.48-4.98,205.48l96.72,8.58Z"
        /><path
          class="cls-6"
          d="M560.78,851.2c.74-53.09,31.54-64.71,58.32-70.35,32.26-6.79,55.44,16.84,55.44,16.84,0,0-10.38,25.05-49.81,44.91-40.55,20.42-63.95,8.61-63.95,8.61Z"
        /><path
          class="cls-6"
          d="M606.74,794.63c-50.76,15.94-40.48,96.06,17.91,80.52,61.32-16.32,32.24-96.27-17.91-80.52Z"
        /><path
          class="cls-3"
          d="M606.36,817.34c-14.43-14.86-35.1,4.68-21.6,19.7,13.5,15.02,34.96-5.95,21.6-19.7Z"
        /><path
          class="cls-6"
          d="M409.21,824.13c1.44-53.07-28.85-65.96-55.38-72.69-31.95-8.11-56.08,14.54-56.08,14.54,0,0,26.41,10.95,64.99,32.41,39.67,22.07,46.48,25.74,46.48,25.74Z"
        /><path
          class="cls-6"
          d="M368.12,767.42c47.16,24.63,22.93,101.69-31.81,76.11-57.48-26.87-14.78-100.44,31.81-76.11Z"
        /><path
          class="cls-3"
          d="M329.47,776.67c16.82-12.08,33.73,10.79,17.8,23.2-15.93,12.41-33.37-12.01-17.8-23.2Z"
        /><path
          class="cls-24"
          d="M559.47,513.07c7.8-29.71,23.2-3.18,37.53-30.18C780.5,137.24,944.85,52.63,987.09,75.15c77.53,41.33,76.88,320.1-8.66,475.11-78.27,141.85-140.6,164.47-211.33,160.87-70.73-3.6-187.64-121.21-197.63-159.63l-9.99-38.42Z"
        /><path
          class="cls-25"
          d="M443.62,508.82c-2.45-30.62-22.28-7.22-31.63-36.32C292.24,99.94,145.36-12.3,99.82,2.43,16.21,29.46-32.24,303.98,24.66,471.63c52.07,153.42,109.44,186.66,179.69,195.58,70.25,8.92,206.05-86.27,222.66-122.33l16.61-36.06Z"
        /><path
          class="cls-4"
          d="M465.95,1006.13c-.64,35.45-7.46,42.17-33.33,40.23,0,0,40.96,9.86,79.11,5.41,0,0-32.47,4.45-36.45-12.99s-2.2-32.33-2.2-32.33l-7.13-.32Z"
        /><path
          class="cls-6"
          d="M520.84,965.1c-3.93-16.08-28.43-25-46.38-26.59-17.96-1.59-43.64,2.87-50.34,18.01-6.71,15.14,25.61,56.78,43.61,57.81,17.91,2.15,57.05-33.15,53.11-49.23Z"
        /><path
          class="cls-4"
          d="M757.72,233.77c65.71-89.36,142.66-140.84,176.18-155.97,33.51-15.12,53.11-9.36,53.11-9.36,0,0,38.66,17.51,56.45,111.58,17.79,94.07-17.75,241.07-17.75,241.07,0,0,6.74-49.02,2.88-73.49-3.86-24.47-79.42-169.92-103.19-174.04-23.76-4.12-114.08,100.04-114.08,100.04,0,0,23.87-57.78,16.95-70.46-6.92-12.68-70.55,30.62-70.55,30.62Z"
        /><path
          class="cls-4"
          d="M300.02,203.2C251.08,103.66,184.39,39.43,154.06,18.64,123.74-2.15,103.43,.07,103.43,.07c0,0-41.14,10.42-75.22,99.89C-5.87,189.43,3.23,340.39,3.23,340.39c0,0,2-49.44,10.11-72.85,8.11-23.41,108.11-153.27,132.23-153.14,24.12,.13,94.68,118.57,94.68,118.57,0,0-13.32-61.08-4.28-72.34,9.04-11.26,64.05,42.57,64.05,42.57Z"
        /><path
          class="cls-12"
          d="M717.54,657.8c-123.89-75.03,140.98-470.74,190.43-521.98,49.45-51.24,75.8-53.59,77.74-52.75,1.94,.84,84.86,57.01,33.57,293.87-46.28,213.72-165.61,299.91-238.4,299.05-34.82-.41-63.34-18.19-63.34-18.19Z"
        /><path
          class="cls-13"
          d="M811.32,273.61c51.75-77.43,124.41-103.15,124.41-103.15,0,0,5.63,4.52-26.2,45.93-31.83,41.41-45.04,54.31-45.04,54.31,0,0,40.03-20.58,68.67-26.08,28.64-5.5,28.46-3.51,28.46-3.51,0,0-3.23,13.79-27.13,33.79-23.89,20-28.06,21.64-28.06,21.64,0,0,41.9,3.72,49.88,4.43s-55.41,35.3-55.41,35.3c0,0,39.37,9.53,44.82,16.04s-117.69,80.04-117.69,80.04c0,0,29.75,4.65,53.56,30.89,0,0-12.99,33.03-55.36,57.42,0,0,31.74,4.83,43.01,13.87,0,0,1.64,4.17-6.69,7.45-8.33,3.28-80.46,23.02-80.46,23.02,0,0,23.41,8.11,37.6,29.48s6.43,40.79,6.43,40.79c0,0-35.15,10.95-62.38,.5-27.22-10.46-39.16-28.5-39.16-28.5,0,0-15.8,48.56,19.62,62.36,0,0-66.46-13.43-59.31-84.13,7.15-70.7,31.97-142.23,77.42-226,45.45-83.76,49.01-85.88,49.01-85.88Z"
        /><path
          class="cls-26"
          d="M268.31,623.96c135.17-52.04-55.86-488.21-95.52-547.36C133.14,17.45,107.61,10.49,105.56,10.98c-2.05,.49-93.58,41.18-84.8,283.36,7.92,218.53,110.2,324.39,182.01,336.37,34.34,5.73,65.55-6.75,65.55-6.75Z"
        /><path
          class="cls-7"
          d="M243.67,229.25c-37.31-85.33-104.3-123.45-104.3-123.45,0,0-6.34,3.46,17.7,49.83,24.03,46.37,34.77,61.4,34.77,61.4,0,0-35.78-27.3-63-37.76-27.22-10.46-27.4-8.46-27.4-8.46,0,0,.76,14.14,20.75,38.04,20,23.89,23.81,26.24,23.81,26.24,0,0-41.9-3.72-49.88-4.43s48.33,44.5,48.33,44.5c0,0-40.43,2.44-46.95,7.9-6.52,5.45,101.76,99.52,101.76,99.52,0,0-30.1-.66-58.16,20.98,0,0,6.96,34.8,44.39,66.27,0,0-32.1-.84-44.78,6.08,0,0-2.35,3.81,5.28,8.51,7.63,4.7,75.15,36.83,75.15,36.83,0,0-24.47,3.86-42.2,22.39s-13.52,39.02-13.52,39.02c0,0,32.68,16.98,61.31,11.47,28.64-5.5,43.57-21.16,43.57-21.16,0,0,7,50.58-30.3,57.93,0,0,67.79-1.51,73.2-72.37,5.42-70.86-6.42-145.64-36.41-236.1-29.99-90.46-33.12-93.17-33.12-93.17Z"
        /><path
          class="cls-23"
          d="M374.48,581.1c6.24-70.28,70.17-88.28,140.17-84.07,70,4.2,119.26,60.85,121.18,107.27,1.91,46.42-131.39,121.05-147.16,208.12,0,0-11.4-75.41-49.23-125.01-37.82-49.6-67.8-74.38-64.96-106.3Z"
        /><path
          class="cls-1"
          d="M595.96,918.23s26.37,52.21,14.9,85.69c-11.47,33.48-58.85,57.27-138.88,47.23s-134.54-26.52-142.93-69.7c-8.39-43.19,34.29-93.69,34.29-93.69,0,0-57.34,42.76-91.68,36.1-57.32-11.12-84.16-70.25-84.16-70.25,0,0,49.95,115.88,147.47,172.59,97.51,56.71,188.92,51,261.65,22.14,72.73-28.86,155.2-102.38,188.19-165.6,0,0-32.39,61.67-93.66,72.32-53.32,9.27-95.2-36.83-95.2-36.83Z"
        /></g><path
        class="cls-5"
        d="M491.42,1624.51c-4.18-138.44,85.92-223.26,190.99-246.73,105.06-23.47,165.28,17.37,165.28,17.37,0,0-46.24-46.98-189.87-22.39-143.62,24.59-179.95,160.95-181.63,222.98-1.68,62.03,44.19,156.68,44.19,156.68,0,0-26.01-29.99-28.96-127.9Z"
      /><path
        class="cls-22"
        d="M956.53,1589.43c212.07,11.44,275.57,131.67,226.32,257.14-44.43,113.2-317.7,177.12-503.8,182.82-174.91,5.36-268.25-49.46-268.25-49.46,0,0-3.35-53.88,224.24-108.46,227.59-54.58,383.53-72.96,314.37-172.8l2.05-5.76,5.07-103.49Z"
      /><path
        class="cls-4"
        d="M601.84,1879.86c-177.63,45.59-197.75,100.92-197.75,100.92,0,0,97.24,54.49,239.75,52.81,142.51-1.68,203.09-22.12,203.84-22.25,.74-.13-89-47.61-161.09-54.59,0,0,44.06-23.89,17.42-101.36l-102.17,24.47Z"
      /></g></g></svg>
