<svg width="1199" height="2034" viewBox="0 0 1199 2034" fill="none" xmlns="http://www.w3.org/2000/svg">
<g clip-path="url(#clip0_305_2)">
<path d="M450.53 1780.07C424.96 1765.29 385.99 1805.37 381.95 1825.3C377.91 1845.23 423.72 1846.58 423.72 1846.58L580.12 1811.93C580.12 1811.93 505.63 1811.93 450.53 1780.07Z" fill="#F7DDBA"/>
<path d="M527.92 1368.83C359.72 1393.21 309.11 1535.64 346.11 1650.36C391.38 1790.75 503.88 1812.22 631.87 1809.86C759.86 1807.5 527.92 1368.83 527.92 1368.83V1368.83Z" fill="url(#paint0_linear_305_2)"/>
<path d="M341.919 1539.01C341.919 1539.01 363.949 1657.26 369.469 1707.85C374.989 1758.44 375.219 1787.8 375.219 1787.8C375.219 1787.8 337.589 1809.53 341.919 1843.88C346.249 1878.24 408.229 1864.09 429.779 1858.7C451.339 1853.31 440.929 1656.19 430.299 1554.34L414.279 1600.02L341.909 1539.01H341.919Z" fill="url(#paint1_linear_305_2)"/>
<path d="M263.09 1210.26C293.52 1263.62 340.19 1522.18 360.4 1646.99C380.61 1771.8 375.22 1787.79 375.22 1787.79C375.22 1787.79 371.35 1816.25 400.65 1816.76C429.95 1817.27 434.16 1795.2 435.17 1740.13C436.18 1685.06 437.53 1552.35 416.31 1457.87C395.09 1363.39 263.09 1210.25 263.09 1210.25V1210.26Z" fill="url(#paint2_linear_305_2)"/>
<path d="M635.85 966.07C616.65 1012.55 708.22 1223.99 766.15 1287.32C806.67 1331.61 872.34 1378.57 934.64 1504.2C999.36 1634.73 923.56 1806.04 695.86 1825.29C468.17 1844.54 462.88 1692.1 448.63 1602.03C431.45 1493.41 299.75 1338.94 299.75 1192.95C299.75 1046.96 348.25 993.06 344.21 937.82C340.17 882.58 373.85 809.83 547.65 827.34C721.45 844.85 635.83 966.06 635.83 966.06L635.85 966.07Z" fill="url(#paint3_linear_305_2)"/>
<path d="M509.94 1778.12C457.73 1751.59 465.82 1581.63 313.24 1329.72C265.39 1250.73 243.52 1132.17 243.52 1132.17L283.94 1144.3L253.63 1078.62C253.63 1078.62 328.18 1000.67 344.23 937.83C360.29 874.99 502.36 899.58 535.71 966.08C569.06 1032.58 560.78 976.32 560.78 976.32L550.799 1006.14C550.799 1006.14 581.38 1057.73 590.76 1196.05C590.76 1196.05 528.57 1219.64 483.52 1360.13C438.78 1499.65 509.94 1778.13 509.94 1778.13V1778.12Z" fill="url(#paint4_linear_305_2)"/>
<path d="M458.07 1539.01C458.07 1539.01 466.03 1664.62 471.55 1715.21C477.07 1765.8 470.93 1789.03 470.93 1789.03C470.93 1789.03 446.72 1813.56 451.05 1847.92C455.38 1882.28 517.36 1868.13 538.91 1862.74C560.47 1857.35 544.3 1711.17 566.15 1557.74L523.41 1604.06L458.06 1539.01H458.07Z" fill="url(#paint5_linear_305_2)"/>
<path d="M521.77 1335.53C491.67 1369.38 458.07 1417.46 457.74 1507.73C457.4 1598 471.16 1745.12 473.18 1772.81C475.2 1800.51 515.89 1771.2 535.94 1724.7C555.17 1680.09 569.23 1507.73 577.99 1448.45C586.75 1389.17 584.02 1359.09 570.58 1328.54C557.14 1297.99 536.43 1319.05 521.78 1335.53H521.77Z" fill="url(#paint6_linear_305_2)"/>
<path d="M888.53 1428.64C781.4 1310.99 571.38 1380.75 520.72 1492.15C470.06 1603.55 491.08 1715.73 538.23 1778.12C585.39 1840.51 698.56 1841.36 787.48 1825.44C876.4 1809.52 962.47 1736.83 960.06 1635.38C957.91 1544.63 928.82 1472.89 888.52 1428.63L888.53 1428.64Z" fill="url(#paint7_linear_305_2)"/>
<path d="M787.479 1825.44C787.479 1825.44 670.859 1845.9 618.349 1859.37C565.849 1872.84 532.159 1876.88 520.369 1862.06C508.579 1847.24 552.959 1810.53 566.139 1810.02C579.319 1809.51 621.759 1824.85 678.339 1826.95C734.919 1829.05 787.469 1825.43 787.469 1825.43L787.479 1825.44Z" fill="url(#paint8_linear_305_2)"/>
<path d="M802.999 833.28C802.189 814.11 749.459 660.63 734.179 623.08C707.459 557.41 657.839 501.02 514.109 488.9C370.489 475.52 319.119 527.76 273.709 582.21C258.099 600.93 163.799 774.53 163.999 777.57C167.799 834.6 260.729 1047.06 455.849 1068.78V1068.9C457.829 1069.08 459.169 1069.16 460.829 1069.29C462.489 1069.46 465.809 1069.79 465.809 1069.79V1069.67C663.719 1082.84 805.409 890.39 802.989 833.29L802.999 833.28Z" fill="url(#paint9_linear_305_2)"/>
<path d="M613.239 984.24C610.369 912.28 517.619 782.83 527.919 727.13C537.919 673.08 501.069 638.58 501.069 638.58C501.069 638.58 458.729 666.05 459.059 721.02C459.399 777.66 345.279 888.75 329.789 959.08C314.289 1029.41 420.899 1046.68 464.509 1050.55C508.119 1054.42 616.109 1056.2 613.239 984.23V984.24Z" fill="url(#paint10_linear_305_2)"/>
<path d="M520.759 966.07C500.209 893.87 536.319 764.53 594.359 714.72C652.399 664.91 727.379 651.96 765.169 710.28C765.169 710.28 732.679 593.73 677.209 548.18C621.739 502.63 542.129 486.32 455.389 487.24C368.659 488.15 308.419 515.27 213.319 666.52C213.319 666.52 266.389 614.66 342.279 641.93C381.899 656.17 411.169 690.83 429.029 752C456.259 845.31 424.049 957.48 424.049 957.48L520.769 966.06L520.759 966.07Z" fill="url(#paint11_linear_305_2)"/>
<path d="M560.779 851.2C561.519 798.11 592.319 786.49 619.099 780.85C651.359 774.06 674.539 797.69 674.539 797.69C674.539 797.69 664.159 822.74 624.729 842.6C584.179 863.02 560.779 851.21 560.779 851.21V851.2Z" fill="#261E18"/>
<path d="M606.739 794.63C555.979 810.57 566.259 890.69 624.649 875.15C685.969 858.83 656.889 778.88 606.739 794.63Z" fill="#261E18"/>
<path d="M606.36 817.341C591.93 802.481 571.26 822.02 584.76 837.04C598.26 852.06 619.72 831.091 606.36 817.341Z" fill="white"/>
<path d="M409.21 824.13C410.65 771.06 380.36 758.17 353.83 751.44C321.88 743.33 297.75 765.98 297.75 765.98C297.75 765.98 324.16 776.93 362.74 798.39C402.41 820.46 409.22 824.13 409.22 824.13H409.21Z" fill="#261E18"/>
<path d="M368.119 767.42C415.279 792.05 391.049 869.11 336.309 843.53C278.829 816.66 321.529 743.09 368.119 767.42Z" fill="#261E18"/>
<path d="M329.47 776.67C346.29 764.59 363.2 787.46 347.27 799.87C331.34 812.28 313.9 787.86 329.47 776.67Z" fill="white"/>
<path d="M559.47 513.07C567.27 483.36 582.67 509.89 597 482.89C780.5 137.24 944.85 52.6301 987.09 75.1501C1064.62 116.48 1063.97 395.25 978.43 550.26C900.16 692.11 837.83 714.73 767.1 711.13C696.37 707.53 579.46 589.92 569.47 551.5L559.48 513.08L559.47 513.07Z" fill="url(#paint12_linear_305_2)"/>
<path d="M443.62 508.82C441.17 478.2 421.34 501.6 411.99 472.5C292.24 99.9401 145.36 -12.2999 99.8197 2.43007C16.2097 29.4601 -32.2403 303.98 24.6597 471.63C76.7297 625.05 134.1 658.29 204.35 667.21C274.6 676.13 410.4 580.94 427.01 544.88L443.62 508.82Z" fill="url(#paint13_linear_305_2)"/>
<path d="M465.95 1006.13C465.31 1041.58 458.49 1048.3 432.62 1046.36C432.62 1046.36 473.58 1056.22 511.73 1051.77C511.73 1051.77 479.26 1056.22 475.28 1038.78C471.3 1021.34 473.08 1006.45 473.08 1006.45L465.95 1006.13V1006.13Z" fill="#AA6F3D"/>
<path d="M520.839 965.1C516.909 949.02 492.409 940.1 474.459 938.51C456.499 936.92 430.819 941.38 424.119 956.52C417.409 971.66 449.729 1013.3 467.729 1014.33C485.639 1016.48 524.779 981.18 520.839 965.1V965.1Z" fill="#261E18"/>
<path d="M757.72 233.77C823.43 144.41 900.38 92.9304 933.9 77.8004C967.41 62.6804 987.01 68.4404 987.01 68.4404C987.01 68.4404 1025.67 85.9504 1043.46 180.02C1061.25 274.09 1025.71 421.09 1025.71 421.09C1025.71 421.09 1032.45 372.07 1028.59 347.6C1024.73 323.13 949.17 177.68 925.4 173.56C901.64 169.44 811.32 273.6 811.32 273.6C811.32 273.6 835.19 215.82 828.27 203.14C821.35 190.46 757.72 233.76 757.72 233.76V233.77Z" fill="#AA6F3D"/>
<path d="M300.02 203.2C251.08 103.66 184.39 39.4302 154.06 18.6402C123.74 -2.14978 103.43 0.0702168 103.43 0.0702168C103.43 0.0702168 62.2898 10.4902 28.2098 99.9602C-5.87021 189.43 3.2298 340.39 3.2298 340.39C3.2298 340.39 5.2298 290.95 13.3398 267.54C21.4498 244.13 121.45 114.27 145.57 114.4C169.69 114.53 240.25 232.97 240.25 232.97C240.25 232.97 226.93 171.89 235.97 160.63C245.01 149.37 300.02 203.2 300.02 203.2V203.2Z" fill="#AA6F3D"/>
<path d="M717.54 657.8C593.65 582.77 858.52 187.06 907.97 135.82C957.42 84.5802 983.77 82.2302 985.71 83.0702C987.65 83.9102 1070.57 140.08 1019.28 376.94C973 590.66 853.67 676.85 780.88 675.99C746.06 675.58 717.54 657.8 717.54 657.8V657.8Z" fill="url(#paint14_linear_305_2)"/>
<path d="M811.32 273.61C863.07 196.18 935.73 170.46 935.73 170.46C935.73 170.46 941.36 174.98 909.53 216.39C877.7 257.8 864.49 270.7 864.49 270.7C864.49 270.7 904.52 250.12 933.16 244.62C961.8 239.12 961.62 241.11 961.62 241.11C961.62 241.11 958.39 254.9 934.49 274.9C910.6 294.9 906.43 296.54 906.43 296.54C906.43 296.54 948.33 300.26 956.31 300.97C964.29 301.68 900.9 336.27 900.9 336.27C900.9 336.27 940.27 345.8 945.72 352.31C951.17 358.82 828.03 432.35 828.03 432.35C828.03 432.35 857.78 437 881.59 463.24C881.59 463.24 868.6 496.27 826.23 520.66C826.23 520.66 857.97 525.49 869.24 534.53C869.24 534.53 870.88 538.7 862.55 541.98C854.22 545.26 782.09 565 782.09 565C782.09 565 805.5 573.11 819.69 594.48C833.88 615.85 826.12 635.27 826.12 635.27C826.12 635.27 790.97 646.22 763.74 635.77C736.52 625.31 724.58 607.27 724.58 607.27C724.58 607.27 708.78 655.83 744.2 669.63C744.2 669.63 677.74 656.2 684.89 585.5C692.04 514.8 716.86 443.27 762.31 359.5C807.76 275.74 811.32 273.62 811.32 273.62V273.61Z" fill="url(#paint15_linear_305_2)"/>
<path d="M268.309 623.96C403.479 571.92 212.449 135.75 172.789 76.6003C133.139 17.4503 107.609 10.4903 105.559 10.9803C103.509 11.4703 11.9794 52.1603 20.7594 294.34C28.6794 512.87 130.959 618.73 202.769 630.71C237.109 636.44 268.319 623.96 268.319 623.96H268.309Z" fill="url(#paint16_linear_305_2)"/>
<path d="M243.669 229.25C206.359 143.92 139.369 105.8 139.369 105.8C139.369 105.8 133.029 109.26 157.069 155.63C181.099 202 191.839 217.03 191.839 217.03C191.839 217.03 156.059 189.73 128.839 179.27C101.619 168.81 101.439 170.81 101.439 170.81C101.439 170.81 102.199 184.95 122.189 208.85C142.189 232.74 145.999 235.09 145.999 235.09C145.999 235.09 104.099 231.37 96.1193 230.66C88.1393 229.95 144.449 275.16 144.449 275.16C144.449 275.16 104.019 277.6 97.4993 283.06C90.9793 288.51 199.259 382.58 199.259 382.58C199.259 382.58 169.159 381.92 141.099 403.56C141.099 403.56 148.059 438.36 185.489 469.83C185.489 469.83 153.389 468.99 140.709 475.91C140.709 475.91 138.359 479.72 145.989 484.42C153.619 489.12 221.139 521.25 221.139 521.25C221.139 521.25 196.669 525.11 178.939 543.64C161.209 562.17 165.419 582.66 165.419 582.66C165.419 582.66 198.099 599.64 226.729 594.13C255.369 588.63 270.299 572.97 270.299 572.97C270.299 572.97 277.299 623.55 239.999 630.9C239.999 630.9 307.789 629.39 313.199 558.53C318.619 487.67 306.779 412.89 276.789 322.43C246.799 231.97 243.669 229.26 243.669 229.26V229.25Z" fill="url(#paint17_linear_305_2)"/>
<path d="M374.479 581.1C380.719 510.82 444.649 492.82 514.649 497.03C584.649 501.23 633.909 557.88 635.829 604.3C637.739 650.72 504.439 725.35 488.669 812.42C488.669 812.42 477.269 737.01 439.439 687.41C401.619 637.81 371.639 613.03 374.479 581.11V581.1Z" fill="url(#paint18_linear_305_2)"/>
<path d="M595.96 918.23C595.96 918.23 622.33 970.44 610.86 1003.92C599.39 1037.4 552.01 1061.19 471.98 1051.15C391.95 1041.11 337.44 1024.63 329.05 981.45C320.66 938.26 363.34 887.76 363.34 887.76C363.34 887.76 306 930.52 271.66 923.86C214.34 912.74 187.5 853.61 187.5 853.61C187.5 853.61 237.45 969.49 334.97 1026.2C432.48 1082.91 523.89 1077.2 596.62 1048.34C669.35 1019.48 751.82 945.96 784.81 882.74C784.81 882.74 752.42 944.41 691.15 955.06C637.83 964.33 595.95 918.23 595.95 918.23H595.96Z" fill="#F7D7B0"/>
<path d="M491.42 1624.51C487.24 1486.07 577.34 1401.25 682.41 1377.78C787.47 1354.31 847.69 1395.15 847.69 1395.15C847.69 1395.15 801.45 1348.17 657.82 1372.76C514.2 1397.35 477.87 1533.71 476.19 1595.74C474.51 1657.77 520.38 1752.42 520.38 1752.42C520.38 1752.42 494.37 1722.43 491.42 1624.52V1624.51Z" fill="#C18152"/>
<path d="M956.53 1589.43C1168.6 1600.87 1232.1 1721.1 1182.85 1846.57C1138.42 1959.77 865.15 2023.69 679.05 2029.39C504.14 2034.75 410.8 1979.93 410.8 1979.93C410.8 1979.93 407.45 1926.05 635.04 1871.47C862.63 1816.89 1018.57 1798.51 949.41 1698.67L951.46 1692.91L956.53 1589.42V1589.43Z" fill="url(#paint19_linear_305_2)"/>
<path d="M601.84 1879.86C424.21 1925.45 404.09 1980.78 404.09 1980.78C404.09 1980.78 501.33 2035.27 643.84 2033.59C786.35 2031.91 846.93 2011.47 847.68 2011.34C848.42 2011.21 758.68 1963.73 686.59 1956.75C686.59 1956.75 730.65 1932.86 704.01 1855.39L601.84 1879.86V1879.86Z" fill="#AA6F3D"/>
</g>
<defs>
<linearGradient id="paint0_linear_305_2" x1="701.67" y1="1695.21" x2="493.14" y2="1576.83" gradientUnits="userSpaceOnUse">
<stop stop-color="#FFE5C2"/>
<stop offset="0.33" stop-color="#FFC37B"/>
<stop offset="0.62" stop-color="#EFB16F"/>
<stop offset="0.95" stop-color="#DB9D65"/>
</linearGradient>
<linearGradient id="paint1_linear_305_2" x1="341.569" y1="1702.6" x2="442.379" y2="1702.6" gradientUnits="userSpaceOnUse">
<stop stop-color="#FFE5C2"/>
<stop offset="0.6" stop-color="#FFF1E1"/>
</linearGradient>
<linearGradient id="paint2_linear_305_2" x1="263.09" y1="1513.52" x2="435.64" y2="1513.52" gradientUnits="userSpaceOnUse">
<stop stop-color="#FFE5C2"/>
<stop offset="0.33" stop-color="#FFC37B"/>
<stop offset="0.62" stop-color="#EFB16F"/>
<stop offset="0.95" stop-color="#DB9D65"/>
</linearGradient>
<linearGradient id="paint3_linear_305_2" x1="452.06" y1="1613.72" x2="686.4" y2="1216.29" gradientUnits="userSpaceOnUse">
<stop stop-color="#FFE5C2"/>
<stop offset="0.33" stop-color="#FFC37B"/>
<stop offset="0.62" stop-color="#EFB16F"/>
<stop offset="0.95" stop-color="#DB9D65"/>
</linearGradient>
<linearGradient id="paint4_linear_305_2" x1="448.5" y1="1326.75" x2="250.28" y2="1236.94" gradientUnits="userSpaceOnUse">
<stop stop-color="#FFE5C2"/>
<stop offset="0.6" stop-color="#FFF1E1"/>
</linearGradient>
<linearGradient id="paint5_linear_305_2" x1="450.53" y1="1704.62" x2="566.15" y2="1704.62" gradientUnits="userSpaceOnUse">
<stop stop-color="#FFE5C2"/>
<stop offset="0.6" stop-color="#FFF1E1"/>
</linearGradient>
<linearGradient id="paint6_linear_305_2" x1="485.38" y1="1599.46" x2="699.09" y2="1237.02" gradientUnits="userSpaceOnUse">
<stop offset="0.33" stop-color="#FFC37B"/>
<stop offset="0.62" stop-color="#EFB16F"/>
<stop offset="0.95" stop-color="#DB9D65"/>
</linearGradient>
<linearGradient id="paint7_linear_305_2" x1="458" y1="1615.31" x2="825.16" y2="1595.19" gradientUnits="userSpaceOnUse">
<stop stop-color="#FFE5C2"/>
<stop offset="0.33" stop-color="#FFC37B"/>
<stop offset="0.62" stop-color="#EFB16F"/>
<stop offset="0.95" stop-color="#DB9D65"/>
</linearGradient>
<linearGradient id="paint8_linear_305_2" x1="658.379" y1="1824.8" x2="546.879" y2="1843.38" gradientUnits="userSpaceOnUse">
<stop stop-color="#FFE5C2"/>
<stop offset="0.6" stop-color="#FFF1E1"/>
</linearGradient>
<linearGradient id="paint9_linear_305_2" x1="490.022" y1="676.575" x2="467.284" y2="1132.25" gradientUnits="userSpaceOnUse">
<stop stop-color="#FFE5C2"/>
<stop offset="0.6" stop-color="#FFF1E1"/>
</linearGradient>
<linearGradient id="paint10_linear_305_2" x1="476.111" y1="784.257" x2="469.613" y2="1023.62" gradientUnits="userSpaceOnUse">
<stop stop-color="#FFE5C2"/>
<stop offset="0.6" stop-color="#FFF1E1"/>
<stop offset="0.98" stop-color="white"/>
</linearGradient>
<linearGradient id="paint11_linear_305_2" x1="468.377" y1="859.78" x2="512.789" y2="495.098" gradientUnits="userSpaceOnUse">
<stop stop-color="#FFE5C2"/>
<stop offset="0.33" stop-color="#FFC37B"/>
<stop offset="0.62" stop-color="#EFB16F"/>
<stop offset="0.95" stop-color="#DB9D65"/>
</linearGradient>
<linearGradient id="paint12_linear_305_2" x1="742.667" y1="893.2" x2="787.09" y2="528.509" gradientUnits="userSpaceOnUse">
<stop stop-color="#FFE5C2"/>
<stop offset="0.33" stop-color="#FFC37B"/>
<stop offset="0.62" stop-color="#EFB16F"/>
<stop offset="0.95" stop-color="#DB9D65"/>
</linearGradient>
<linearGradient id="paint13_linear_305_2" x1="168.214" y1="823.22" x2="212.626" y2="458.528" gradientUnits="userSpaceOnUse">
<stop stop-color="#FFE5C2"/>
<stop offset="0.33" stop-color="#FFC37B"/>
<stop offset="0.62" stop-color="#EFB16F"/>
<stop offset="0.95" stop-color="#DB9D65"/>
</linearGradient>
<linearGradient id="paint14_linear_305_2" x1="944.33" y1="366.19" x2="1064.31" y2="337.691" gradientUnits="userSpaceOnUse">
<stop offset="0.07" stop-color="#FFE5C2"/>
<stop offset="1" stop-color="#FFF1E1"/>
</linearGradient>
<linearGradient id="paint15_linear_305_2" x1="755.303" y1="434.613" x2="832.766" y2="421.256" gradientUnits="userSpaceOnUse">
<stop stop-color="#FFE5C2"/>
<stop offset="1" stop-color="#FFF1E1"/>
</linearGradient>
<linearGradient id="paint16_linear_305_2" x1="96.4246" y1="296.984" x2="-16.6511" y2="247.799" gradientUnits="userSpaceOnUse">
<stop offset="0.07" stop-color="#FFE5C2"/>
<stop offset="1" stop-color="#FFF1E1"/>
</linearGradient>
<linearGradient id="paint17_linear_305_2" x1="270.452" y1="397.617" x2="196.551" y2="370.821" gradientUnits="userSpaceOnUse">
<stop stop-color="#FFE5C2"/>
<stop offset="1" stop-color="#FFF1E1"/>
</linearGradient>
<linearGradient id="paint18_linear_305_2" x1="467.649" y1="916.186" x2="530.949" y2="372.212" gradientUnits="userSpaceOnUse">
<stop stop-color="#FFE5C2"/>
<stop offset="0.33" stop-color="#FFC37B"/>
<stop offset="0.62" stop-color="#EFB16F"/>
<stop offset="0.95" stop-color="#DB9D65"/>
</linearGradient>
<linearGradient id="paint19_linear_305_2" x1="753.8" y1="2015.06" x2="845.17" y2="1796.28" gradientUnits="userSpaceOnUse">
<stop stop-color="#FFE5C2"/>
<stop offset="0.33" stop-color="#FFC37B"/>
<stop offset="0.62" stop-color="#EFB16F"/>
<stop offset="0.95" stop-color="#DB9D65"/>
</linearGradient>
<clipPath id="clip0_305_2">
<rect width="1198.63" height="2033.62" fill="white"/>
</clipPath>
</defs>
</svg>
