<?xml version="1.0" encoding="UTF-8" ?>
<svg
  id="Layer_2"
  xmlns="http://www.w3.org/2000/svg"
  viewBox="0 0 176.26 152.92"
><defs><style
    >.cls-1{fill:#f3f7a8;}.cls-2{fill:#fabb34;}.cls-3{fill:#ebb43f;}.cls-4{fill:#fff;}.cls-5{fill:#eacfb0;}.cls-6{fill:#e6d9c1;}.cls-7{fill:#e3b068;}.cls-8{fill:#a1a80c;}.cls-9{fill:#b3ba0d;}.cls-10{fill:#d9a129;}.cls-11{fill:#bf8534;}.cls-12{fill:#ccd421;}.cls-13{fill:#c4804e;}.cls-14{fill:#d19643;}.cls-15{fill:#e0e83a;}.cls-16{fill:#a86f20;}.cls-17{fill:#231f20;}.cls-18{fill:#966216;}</style></defs><g
    id="Layer_1-2"
  ><g><g><path
          class="cls-12"
          d="M149.09,125.39c-3.14-.83-6.21-1.95-9.4-2.54-6.15-1.12-11.53,.73-17.54,1.29-9.31,.86-18.54-.95-27.8-1.42-6.67-.33-13.59-5.41-20-7.58-1.94-.66-3.93-1.25-5.74-2.21-1.77-.94-3.33-2.21-4.87-3.49-3.76-3.12-10.45-7.1-12.39-11.56-1.64-3.76-2.14-9.91-1.65-13.95,.54-4.51,6.06-6.71,9.33-9.09,3.95-2.88,6.98-7.17,7.79-11.99,1.65-9.77-6.98-18.03-16.73-16.52-.32,.05-.68,.1-.93-.1-1.28-1.03-.34-3.42-.17-4.67,.3-2.23-.2-4.63-.99-6.71-.72-1.92-2.08-3.73-1.19-5.88,2.19-5.31,4-13.33,8.7-17.03,1.73,2.15,5.64,.15,7.41-.97,2.22-1.41,3.32-4.64,2.09-7.14-.87-1.77-2.77-2.96-4.74-3.06-4.31-.22-6.22,3.7-7.32,7.18-1.11,3.52-3.15,6.52-4.64,9.86s-2.75,6.85-5.29,9.53c-1.29,1.36-8.44,5.42-7.65,7.78-.39-1.16-1.61-1.99-2.84-1.92s-2.35,1.02-2.61,2.22c-1.5-3.01-3.62-5.27-4.55-8.56l-1.47-5.17-2.28-7.99c-.51-1.8,.07-3.6-.52-5.41s-1.82-3.65-3.49-4.69c-2.09-1.3-5.17-1.19-6.73,.72-1.25,1.52-1.26,3.69-1.08,5.65,.06,.6,.13,1.21,.3,1.78,.55,1.81,2.2,3.23,4.07,3.51,2.12,.32,4.78-.56,5.66,1.91,1.28,3.57,2.02,7.3,2.75,11.02,.27,1.39-.78,3.24-1.91,4.11-1.98,1.52-3.29,3.78-3.97,6.18s-.75,4.93-.57,7.41c.04,.5,.05,1.07-.31,1.4-.25,.23-.61,.28-.94,.32-5.56,.67-9.69,2.84-12.34,8.08-2.21,4.37-2.44,9.62-1.01,14.27,.84,2.74,2.65,5.25,5.19,6.55,1.81,.93,3.91,1.22,5.7,2.19,7.46,4.04-1.4,21.63-2.73,27.58-1.42,6.36-1.87,13.1,.01,19.34,2.43,8.04,7.11,14.28,14.61,18.07,20.13,10.15,44.62,11.22,65.56,2.87,4.74-1.89,9.34-4.25,14.32-5.37,8.22-1.84,16.76-.15,25.17,.42,9.95,.68,20.01-.23,29.69-2.67,6.64-1.68,13.79-4.72,16.4-11.05-8.86-.11-17.84-.23-26.4-2.51Z"
        /><g><path
            class="cls-4"
            d="M30.2,38.01c-.17-1.03-.48-2.09-1-3.2-1.47-3.13-4.2-5.53-7.62-3.33-5.3,3.41-6.16,10.8-3.79,15.96-.28-.61,4.62-.77,4.98-.78,1.92-.04,4.77,.77,6.43-.56,1.81-1.45,1.35-6,1.01-8.1Z"
          /><path
            class="cls-4"
            d="M47.89,36c-.77-4.2-2.75-7.75-7.88-5.05-4.35,2.29-6.68,9.21-4.23,13.57,.93,1.65,2.24,2.14,4.08,2.1,2.17-.04,5.92,.28,7.83-.71,1.62-.84,.68-5.51,.55-7.14-.07-.91-.19-1.85-.35-2.76Z"
          /></g><g><path
            class="cls-6"
            d="M29.94,41.91c-1.59,2.65-6.07,3.88-8.69,1.96-1.75-1.28-2.95-4.18-2.95-6.3,0-1.84,.72-3.68,1.98-5.02-4.41,2.88-4.41,10.65-2.5,14.9-.27-.61,4.62-.77,4.98-.77,1.72-.04,3.94,.84,5.56,0,1.49-.78,2.24-3.2,1.62-4.76Z"
          /><path
            class="cls-6"
            d="M48.24,42.13c-.05-.19-.06-.36-.02-.47-.36,.93-1,1.75-1.82,2.32-1.2,.84-2.72,1.11-4.18,1.09-3.17-.03-5.97-2.84-6.32-6.02-.2-1.79,.29-3.58,.82-5.3-2.72,2.59-2.69,7.63-.94,10.75,.93,1.65,2.24,2.14,4.08,2.1,2.03-.04,4.19,.19,6.16-.37,.98-.28,2.24-1.02,2.61-2.02,.21-.58-.24-1.48-.39-2.09Z"
          /></g><path
          class="cls-9"
          d="M144.15,123.7c-2.28,.97-2.9,2.22-5.72,2.31-1.86,.06-3.73-.65-5.59-.74-6.02-.29-10.41,4.17-16.73,1.24-.92-.43-1.72,.15-1.95,.88-2.87-.53-5.88-.26-8.78-.75-3.97-.67-7.88-1.49-11.89-1.89-9.32-.93-16.92,2.62-25.41-3.14-1.61-1.09-3.33-1.67-5.09-2.02-.04-.11-.08-.23-.13-.34-1.74-3.53-4.6-7.36-6.98-10.54-1.83-2.45-4.85-4.52-4.78-7.59,.02-.76,.24-1.51,.29-2.27,.18-3.06-2.11-5.78-2.48-8.79-.8-6.49,.89-9.87,6.65-13.6,3.57-2.31,7.57-4.36,9.81-7.98,1.75-2.82,2.18-6.43,1.15-9.59-.79,.76-.98,1.92-1.28,2.97-1.82,6.47-9.67,14.26-16.77,14.3-1.29,0-2.62-.25-3.86,.11-2.11,.62-2.48,4.13-3.81,5.76-1.72,2.11-4.48,3.74-7.2,4.01-4.17,.41-6.36-2.26-8.84-5.12-.3-.35-1-.6-1.08-.15-.76,4.77-3.14,5.24-6.87,3.25-.32-.17-.69-.35-1.03-.22-1.37,0-3,11.15-3.21,12.37h1.19c1.28-2.91,3.65-5.88,6.83-5.85,3.41,.03,7.11,3.22,10.48,4.1,3.87,1,6.43,3,8.24,6.6,3.03,6.02,2.79,13.49,9.38,17.17,5.09,2.84,8.6,8.16,14.68,9.29,3.52,.65,7.3,.1,10.56,1.55,2.1,.93,3.8,2.63,5.92,3.53,5.97,2.54,12.56-1.89,19.05-2.02,7.3-.15,14.51,5.19,21.43,2.86,1.99-.67,3.79-1.95,5.87-2.24,3.62-.5,6.87,2.06,10.38,3.08,3.68,1.07,7.85,.33,10.94-1.95,2.13-1.57,3.99-3.68,6.84-3.58-2.03-3.16-6.22-6.56-9.89-5.13-.11,.04-.21,.08-.31,.13Z"
        /><path
          class="cls-15"
          d="M52.48,143.65c-1.23-1.04-2.61-1.91-4.07-2.58-2.89-1.31-6.48-2.12-7.81-5-.77-1.66-.53-3.59-.68-5.41s-.98-3.88-2.75-4.34c-1.52-.4-3.31,.53-4.64-.32-2.21-1.41,0-4.93-.74-7.45-.78-2.65-4.51-3.24-5.85-5.65-1.84-3.31,1.88-7.5,.64-11.09-1.43-1.22-3.46,.49-4.58,2s-3.35,3.08-4.61,1.68c-1.19-1.32,.32-3.58-.47-5.18-.65-1.32-2.63-1.45-3.84-.6s-1.78,2.31-2.22,3.72c-3.98,12.96-1.02,27.92,9.47,36.87,3.99,3.41,8.66,5.91,13.52,7.83,4.33,1.7,10.54,.46,14.24,3.14,3.98,2.87,8.44-3.85,5.07-7.02-.22-.21-.44-.4-.67-.6Z"
        /><path
          class="cls-1"
          d="M41.54,148.24c-9.16-4.5-18.7-6.79-24.99-15.53-6.61-9.18-5.45-21.85-3.34-32.24,.13-.63-.74-.84-.95-.24-3.76,10.77-4.38,21.69,.91,32.05,5.1,9.98,17.5,14.86,27.59,17.91,1.15,.35,1.86-1.42,.78-1.95Z"
        /><path
          class="cls-15"
          d="M49.8,58.06c-2.99,.32-5.98,1.88-8.9,2.91-8.89,3.15-17.72,.4-26.35-1.67-.35-.08-.78-.14-1.01,.13-.32,.37,.05,.94,.45,1.23,6.54,4.79,16.86,6.27,24.61,4.6,2.61-.56,5.08-1.65,7.52-2.73,2.54-1.12,5.13-2.28,7.13-4.2-1.14-.34-2.29-.4-3.44-.27Z"
        /><g><path
            class="cls-8"
            d="M53.98,57.74c-.59-.63-1.79-1.51-2.66-.87-.35,.26-.53,.74-.43,1.16,.18-.14,.45,.12,.4,.35s-.27,.36-.47,.47c-2.7,1.5-5.47,2.98-8.39,4-2.98,1.04-6.09,1.67-9.24,1.81s-6.33-.19-9.41-.88c-2.9-.64-6.94-1.43-9.4-3.14-.13-.09-.26-.2-.29-.35-.03-.15,.04-.3,.06-.45,.21-1.55-1.72-.39-2.1,.12s-.89,1.52-.45,2.15c.75,1.07,.97,.08,1.34-.5,.22-.35,.76-.3,1.13-.11,6.29,3.24,12.24,5.78,19.55,5.54,3.51-.12,7-.77,10.32-1.93,1.68-.59,3.31-1.3,4.88-2.14,.69-.37,1.38-.75,2.06-1.15,.48-.28,1.93-1.89,2.32-1.77,.14,.04,.25,.15,.38,.22,.46,.29,1.36,.1,1.57-.45,.24-.66-.72-1.63-1.15-2.09Z"
          /><path
            class="cls-8"
            d="M43.42,77.81c-1.58,1.01-2.43,2.44-3.55,3.94-1.85,2.49-4.4,3.33-7.43,3.22-3.42-.13-5.52-1.51-7.31-4.38-.6-.96-1.3-1.47-2.31-1.9-.35-.15-.65,.34-.3,.53,2.4,1.27,2.18,4.16,4.23,5.51,2.08,1.37,4.5,1.47,6.93,1.6,4.65,.25,8.99-3.78,10.52-7.94,.16-.44-.41-.8-.77-.57Z"
          /></g><g><path
            class="cls-15"
            d="M64.31,53.16c-1.69-3.3-9.47-5-9.23,1.53,.08,2.14,2.03,4.18,4.15,3.91,.48-.06,.94-.22,1.39-.39,1.09-.4,2.21-.83,3.03-1.66,1.13-1.15,1.2-2.36,.67-3.4Z"
          /><path
            class="cls-15"
            d="M11.78,55.52c0-1.1-.46-2.23-1.42-3.15-1.26-1.22-3.56-1.66-5.06-.56-.52,.38-1.05,.77-1.49,1.23-1,1.04-1.24,2.1-1.38,3.49-.46,4.5,4.06,4.01,6.83,2.74,1.64-.75,2.52-2.21,2.52-3.74Z"
          /></g></g><g><path
          class="cls-3"
          d="M96.02,123.61c-.16-.02-.31-.04-.47-.06-2.75-.3-5.47,.55-8.19,1.02-14.43,2.47-29.65-7.81-37.01-19.6-1.24-1.98-2.5-4.5-1.33-6.52,.36-.62,.91-1.1,1.4-1.62,3.71-3.92,3.38-10.42,5.11-15.3,3.18-8.95,8.99-16.83,16.03-23.21,2-1.78,4.17-3.48,6.55-4.74,5-2.63,10.32-4.61,15.58-6.47,1.73-.61,3.47-1.23,5.27-1.6,3.89-.8,7.34,.16,11.23-.12,2.65-.2,5.65,.84,8.15,1.68,4.45,1.49,8.62,3.3,12.98,5.02,.92,.36,1.85,.73,2.68,1.26,1,.64,1.84,1.52,2.66,2.38,1.61,1.69,3.45,3.29,4.76,5.22,1.4,2.07,3.19,3.83,4.71,5.81,4.51,5.88,6.5,13.48,6.33,20.89-.13,5.37-1.32,10.66-3.17,15.69-1.29,3.53-3.19,7.68-5.88,10.38-1.36,1.37-4.94,2.81-3.21,5.35,1.44,2.12,11.06,1.8,5.61,6.85-1.63,1.51-4.04,1.74-6.26,1.89-12.89,.88-26.2,1.71-38.37-2.62-1.7-.6-3.38-1.31-5.15-1.59Z"
        /><path
          class="cls-2"
          d="M96.02,123.61c-.16-.02-.31-.04-.47-.06-2.75-.3-5.47,.55-8.19,1.02-14.43,2.47-29.65-7.81-37.01-19.6-2.12-3.39-3.3-11.94,3.68-9.59,2.76,.93,4.46,3.63,6.01,6.11,5.35,8.54,13.12,17.23,23.2,17.3,6.56,.05,12.77-3.69,19.32-3.32,7.16,.4,13.61,5.66,20.75,5.06,3.3-.28,6.36-1.8,9.59-2.53,3.52-.8,18.36,2.87,12.91,7.93-1.63,1.51-4.04,1.74-6.26,1.89-12.89,.88-26.2,1.71-38.37-2.62-1.7-.6-3.38-1.31-5.15-1.59Z"
        /><g><path
            class="cls-5"
            d="M89.44,89.68c-.02,.28,.05,.44,.26,.44,.29,0,.47-.31,.59-.57,2.84-6.05,8.85-10.68,15.35-12.21,2.98-.7,6.14-.66,9.08,.2,6.61,1.93,12.6,8.53,13.07,15.58,0,0,.01,0,.01,0,.34-2.62,.28-5.46-.95-7.85-1.27-2.49-3.12-4.66-5.38-6.31-5.04-3.68-11.61-4.45-17.53-2.82-4.33,1.19-8.28,3.83-11.19,7.23-.47,.55-3.18,4.89-3.31,6.31Z"
          /><path
            class="cls-5"
            d="M88.62,91.22c.03,.23,.05,.47,.07,.7,.03,.22,.2,.41,.42,.44,.27,.04,.53-.15,.57-.42,.04-.23,.08-.46,.12-.69,.06-.33-.18-.64-.5-.69-.38-.06-.73,.27-.69,.65Z"
          /><path
            class="cls-5"
            d="M87.38,97.28c-.43,3.17,1.35,7.93,2.07,10.19,1.41,4.45,3.72,9.32,7.45,12.29,2.92,2.33,7.17,4.41,10.75,4.99,1.35,.22,2.72,.38,4.07,.59,0,0,0,0,0-.01-4.97-3.19-10.64-4.31-14.82-8.87-2.05-2.23-3.7-4.83-4.83-7.64-1.11-2.74-1.73-5.65-2.1-8.58-.22-1.75-.33-3.84-1.67-5.12-.51,.55-.79,1.29-.91,2.16Z"
          /></g><path
          class="cls-13"
          d="M73.45,57.4c-1.54,1.36-2.97,2.98-4.62,4.07,2.79-1.84,5.48-3.95,8.48-5.45,1.1-.55,7.05-2,7.29-2.82,.23-.77,1.57-.76,1.78,0,.27-.2,6.82-2.74,5.96-1.18,1.95-3.53,5.75,.71,8.41-.33,1.32-.52,1.35-2.75,2.98-2.16,.8,.29,.43,2.16,1.45,2.53,1.09,.4,1.64-1.27,2.49-2.05,2.92-2.7,5.86,4.63,5.99,4.56,1.85-1.02,3.47-1.85,5.62-1.23,.59,.17,5.73,3.9,4,4.49,2.51-.88,4.7,.08,7.19,.71,1.5,.38,3.37,1.25,3.17,2.79-.06,.5-.36,.94-.56,1.41-1.23,2.89,3.71,1.22,3.65,1.66-.21,1.42-.41,2.85-.61,4.28,1.73,.34,3.46,.67,5.19,1.01-.4,1.28-.81,2.56-1.21,3.84,1.67-.51,3.31,1.29,3.35,3.04,.03,1.74-.98,3.31-1.96,4.76,2.08-.7,4.4,1.16,4.73,3.33,.33,2.17-.89,4.34-2.54,5.79,1.12,.52,2.18,1.2,3.12,2,1.05,.91-10.71,9.24-2.21,11.01-.16,.4-.32,.79-.48,1.19-.77-.21-1.54-.42-2.31-.63-.34,.21-.69,.42-1.03,.63,.56,1.07,1.12,2.14,1.68,3.21,.13,.25,.27,.52,.28,.8,.03,.7-.74,1.23-1.44,1.21-.7-.01-1.33-.4-1.93-.78-.51,1.82-1.03,3.65-1.55,5.48-.9-.37-1.8-.73-2.7-1.1-.09,1.65-.74,3.26-1.82,4.5-.66-.24-1.26-.65-1.72-1.18-.62,.77-.73,1.81-1.02,2.76-1.33,4.34-4.33,0-6.08,1.02-.5,.29-.66,.92-.92,1.43-.47,.92-1.44,1.56-2.47,1.65,.04-.59-.44-1.16-1.02-1.23-.57,.75-1.14,1.5-1.71,2.26,.17-.79-.88-1.52-1.56-1.08-.5,.33-1.02,1.11-1.47,.71-.13-.11-.17-.3-.3-.42-.5-.53-1.14,.46-1.72,.91-2.25,1.74-10.07-1.42-12.03-2.85,9.52,6.89,20.32,5.26,30.41,.9,3.75-1.62,7.27-3.91,10.08-6.89,8.89-9.43,13.09-23.85,10.52-36.6-.71-3.54-2.08-6.84-4.09-9.84-1.96-2.92-3.28-6.1-5.5-8.94-4.23-5.43-12.56-11.36-20.3-13.22-8.84-3.85-18.13-4.55-27.31-1.59-7.46,2.41-15.72,6.38-21.62,11.6Z"
        /><path
          class="cls-11"
          d="M119.16,76.46c17.5,7.2,5.83,39.64-11.47,27.9-2.39-1.63-4.01-4.24-4.56-7.07-.97-4.99,3.41-10.7,8.75-10.32,2.9,.21,4.21,2.27,6.64,3.16,.99-2.89-6.08-4.25-7.85-4.14-1.29,.08-2.8,.45-3.88,1.19-1.14,.77-1.96,1.79-2.81,2.85-1.69,2.13-2.28,5.06-2.06,7.73,.24,2.98,1.84,5.57,4.15,7.43,2.43,1.95,5.55,2.9,8.65,2.87,2.77-.03,5.49-1,7.8-2.49,17.52-11.31,.11-33.8-16.75-30.45-8.35,1.66-15.32,8.53-17.5,16.76s.3,17.43,6.01,23.75c.97,1.07,2.11,2.28,1.97,3.72-4.39,.31-6.28,1.16-10.07,2.71-12.26,5.04-25.29-10.46-30.56-19.41l-2.03-3.44c-.3-.51-.61-1.04-.7-1.62-.15-.9,.23-1.8,.57-2.65,2.5-6.27,2.83-12.95,5.7-19.12,1.5-3.22,3.26-6.26,5.31-8.89,5.05-6.47,12.07-11.41,19.12-15.31,2.74-1.51,5.62-2.77,8.59-3.75,1.49-.49,3-.89,4.54-1.21,3.82-.79,6.72-1.1,10.64-.79,4.32,.34,8.59,1.28,12.74,2.54,6,1.83,11.63,4.83,16.45,8.84,3.74,3.11,6.96,6.81,9.58,10.9,1.33,2.06,2.38,4.25,3.5,6.42,1.98,3.82,2.56,8.16,2.47,12.49-.06,3-.45,6.01-1.08,8.95-1.28,5.93-3.81,11.38-6.93,16.55-2.56,4.23-7.28,7.71-11.64,9.78-5.49,2.62-11.62,3.79-17.68,3.3-6.18-.5-12.2-2.78-16.94-6.82-6.23-5.32-9.79-13.21-9.57-21.41,.08-2.97,.48-6.03,1.67-8.77,1.17-2.68,2.89-5.37,5.15-7.27,2.1-1.77,4.61-3.15,7.17-4.12,2.24-.85,4.67-1.33,7.04-1.59,1.2-.13,2.42-.17,3.63-.1,.44,.03,.87,.07,1.3,.12,.07,.04,.15,.06,.23,.08,5.79,1.47,10.8,5.72,12.7,11.44,.37,1.11,.61,2.26,.71,3.42l-8.67-14.15Z"
        /></g><path
        class="cls-10"
        d="M140.24,118.6c-.62-.18-1.01-.35-1.01-.55,0,3.78,5.99,2.11,6.64,4.39,.73,2.52-6.96,4.16-8.63,4.31-2.94,.33-5.87,.65-8.81,.98-5.87,.65-11.65,1.04-17.54,.29-4.4-.57-8.81-2.85-13.1-4.01-4.82-1.3-7.44,.25-12.28,.65-4.83,.4-9.33-.21-13.72-2.36-5.63-2.77-11.01-7.46-15.37-11.89-2.28-2.32-5.16-5.21-6.06-8.45-.38-1.37-.58-2.61-.1-3.99,.79-2.27,4-2.6,4.68-4.01,.23-.47-.52-.78-1.04-.77-1.04,0-2.11,.02-3.07,.41-11.05,4.44,4.54,18.97,8.32,22.36,4.8,4.3,10.2,7.79,16.3,9.89,5.16,1.78,10.9,.25,16.31-.17,6.22-.48,10.81,1.77,16.62,3.35,2.86,.78,6,.78,8.93,.85,7.35,.15,14.83-1,22.15-1.64,2.75-.24,9.63-.64,8.89-4.78-.56-3.13-5.67-4.11-8.12-4.84Z"
      /><g><path
          class="cls-16"
          d="M135.07,83.03c-2.48-5.44-8-9.97-13.24-11.62-8.83-2.78-18.53-2.94-26.67,1.78-6.84,3.97-10.01,10.66-13.03,17.58-2.24,5.14-9.39,11-15.34,8.02-4.44-2.22-5.77-10.84-5.72-15.17,.11-8.49,4.63-16.21,9.02-23.48-5.32,4.56-9.45,10.44-12.12,16.91-2.25,5.44-4.72,13.45-5.1,19.33-.21,3.33,3.15,7.76,4.82,10.61,2.19,3.73,5.48,6.72,8.98,9.2,3.5,2.48,7.39,4.74,11.56,5.87,2.79,.76,19.64-1.54,19.54-4.26-.07-1.78-3.37-2.15-4.45-3.31-1.96-2.12-3.43-6.65-4.8-9.28-.5-.95-1.25-1.31-2-1.27-1.22-8.24,4.36-18.85,9.41-23.77,4.69-4.58,11.09-4.98,17.24-4.54,2.89,.21,5.69,.87,8.35,1.99,4.27,1.81,4.8,5.67,6.33,9.37,.12,.29,.3,.52,.5,.73-.34,2.34-.17,4.72-.7,7.22-1.31,6.11-6.28,10.26-12.04,11.91-7.11,2.05-10.38-3.39-12.47-9.09-1.59-4.33,1.72-8.87,5.81-10.22,3.26-1.07,5.96,1.74,9.11,.96,.58-3.31-2.5-5.12-5.22-5.97-3.2-1-6.82-.56-9.69,1.19-1.48,.9-2.75,2.13-3.8,3.52-8.02,10.63,.62,25.72,13.67,25.58,12.49-.13,24.1-11.76,23.37-24.65-.1-1.76-.57-3.49-1.32-5.14Z"
        /><path
          class="cls-18"
          d="M137.94,54.34c-3.31-2.78-7.11-5.13-11.12-6.71-13.53-5.32-23.36-6.68-37.07-1.26-10.94,4.33-20.54,12.36-27.32,21.92-5.31,7.48-12.75,21.37-9.11,30.54,1.91,4.82,4.26,8.45,7.73,12.42,4.89,5.59,10.77,9.37,18.05,10.86,4.93,1.01,9.49,.43,14.27-.9,5.89-1.64,8.83,2.86,13.76,4.77,14.41,5.58,28.02-2.89,37.98-12.88,15.66-15.7,8.29-45.79-7.16-58.77Zm-19.04,70.37c-14.24,.49-27.77-10.25-29.66-24.35-1.09-8.15,2.85-16.36,9.78-20.74,5.78-3.66,15.44-5.24,21.61-1.39,8.35,5.2,8.96,18.22,2.41,25.01-5.38,5.56-13.86,3.59-17.99-2.09-3.3-4.53-1.27-10.61,3.82-12.72,3.08-1.27,5.93,.57,8.31,2.13,1.34,.88,2.55-1.06,1.58-2.13-5.48-6.11-14.36-3.46-17.77,3.31-3.82,7.57,3.89,16.43,11.41,16.96,8.62,.6,17.01-5.63,17.23-14.8,.39-15.94-15.07-23.74-29.02-17.62-6.01,2.64-10.64,7.87-12.88,14.01-1.52,4.16-1.94,8.71-1.05,13.06,.91,4.46,3.05,7.41-1.55,10.49-4.7,3.15-11.15,3.01-16.14,.35-9.37-5-13.01-15.66-12.44-25.77,.28-4.97,.39-9.71,3.36-13.69,3.24-4.36,6.29-8.98,9.52-13.28s9.03-7.2,13.79-9.84c11.32-6.28,22.8-8.82,35.27-4.61,22.94,7.75,38.83,29.41,30.82,54.2-4.2,13-16.76,23.05-30.41,23.52Z"
        /><g><path
            class="cls-14"
            d="M120.55,94.2c-1.83,.2-3.43-1.77-5.16-2.74-2-1.12-4.68-.84-6.4,.67-4.58,4.02-1.09,10.61,4.48,11.05s11.32-4.46,11.69-10.2c.12-1.8-.54-3.98-2.3-4.39,.15,1.03,.29,2.09,.08,3.12s-.85,2.02-1.83,2.37c-.19,.07-.37,.11-.55,.13Z"
          /><path
            class="cls-14"
            d="M145.31,74.68v-.04c-2.92-8.57-11.03-16.11-18.47-21-15.46-10.16-42.01-5.38-53.56,8.67-3.26,3.97-6.15,8.41-7.29,13.41-1.41,6.19,1.7,21.28,10.58,15,2.06-1.45,3.23-3.83,4.16-6.17,2.58-6.47,6.37-12.85,12.19-16.9,6.02-4.19,12.22-4.33,18.88-3.81-.61,.84-.23,2.38,1.14,2.38,1.27,0,1.64-1.32,1.18-2.18,.79,.07,1.59,.15,2.4,.23,7.78,.74,13.77,5.32,18.88,10.81,14.57,15.67-.94,38.75-19.66,40.71-5.99,.63-11.65-1.65-15.7-6.07-1.91-2.09-3.58-4.67-4.55-7.33-.26-.7-1.13-6.47-2.99-4.52-.29,.3-.32,.76-.31,1.18,.19,13.58,13.47,21.71,25.99,21.33,15.55-.47,29.43-12.86,30.28-28.91,.3-5.68-1.39-11.6-3.14-16.8Z"
          /><path
            class="cls-14"
            d="M93.2,89.53c-2.38,0-2.31,3.69,.06,3.69s2.31-3.69-.06-3.69Z"
          /><path
            class="cls-14"
            d="M97.37,84.42c-.5,0-.49,.78,.01,.78s.49-.78-.01-.78Z"
          /><path
            class="cls-14"
            d="M102.88,79.75c-1.63,0-1.58,2.52,.04,2.52s1.58-2.52-.04-2.52Z"
          /><path
            class="cls-14"
            d="M113.36,79.99l-.09,.14c-.07,.11-.06,.28,0,.39l.1,.15c.36,.57,1.27,.32,1.26-.37-.01-.7-.92-.88-1.27-.32Z"
          /><path
            class="cls-14"
            d="M121.19,84.53c-.98,.02-1.28,1.33-.46,1.82l.07,.04c.25,.15,.58,.13,.83-.01l.08-.05c.84-.49,.44-1.82-.52-1.8Z"
          /><path
            class="cls-14"
            d="M69.39,92.97c-1.5,0-1.46,2.33,.04,2.33s1.46-2.33-.04-2.33Z"
          /><path
            class="cls-14"
            d="M64.55,87.77l-.07-.04c-.37-.22-.85-.2-1.22,.02l-.08,.05c-1.17,.69-.61,2.55,.73,2.52,1.37-.02,1.8-1.86,.64-2.55Z"
          /><path
            class="cls-14"
            d="M122.99,121.31l-.17-.24c-.3-.44-.88-.41-1.17,.02l-.17,.25c-.38,.56,.16,1.31,.78,1.3,.64-.01,1.11-.77,.73-1.33Z"
          /><path
            class="cls-14"
            d="M138.81,94.74c-1,0-.97,1.55,.03,1.55s.97-1.55-.03-1.55Z"
          /><path
            class="cls-14"
            d="M99.42,65.55c-2.13,0-2.07,3.3,.06,3.3s2.07-3.3-.06-3.3Z"
          /><path
            class="cls-7"
            d="M119.95,96.71c-.75,.95-1.69,1.25-2.86,1.37-.73,.07-2.85,.3-3.11-.57-.21-.67-.61-1.06-1.08-1.24,1.17-.84,.8-3.2-1.05-3.2-2,0-2.17,2.74-.62,3.37-.82,.46-1.36,1.44-.78,2.63,2.01,4.13,9.45,2.42,11.35-.98,.63-1.13-1.02-2.45-1.86-1.38Z"
          /><path
            class="cls-7"
            d="M145.02,94.66c-3.81,4.21-5.31,10.18-8.96,14.69-4.88,6.03-13.83,10.02-21.51,8.67-.12-.02-.17,.16-.05,.19,7.7,1.72,13.83,.13,20.08-4.64,5.06-3.86,11.61-11.32,12.4-17.81,.13-1.06-1.1-2.06-1.97-1.1Z"
          /><path
            class="cls-7"
            d="M104.66,53.08c.08-1.64-5.99-1.25-6.93-1.12-4.64,.62-8.67,2.48-12.8,4.54-6.27,3.12-13.37,9.83-13.57,17.43-.13,5.12,7.49,2.55,9.4-.03,1.95-2.63,2.02-6.39,4.2-8.83,4.01-4.48,11.59-8.33,17.26-10.13,.69-.22,1.43-.43,1.93-.95,.34-.36,.5-.66,.51-.91Z"
          /><path
            class="cls-7"
            d="M112.73,53.17c-1.17,0-1.14,1.81,.03,1.81s1.14-1.81-.03-1.81Z"
          /><path
            class="cls-7"
            d="M121.98,55.18c-1.09,0-1.99,.96-1.97,2.04,.02,1.11,.95,1.97,2.04,1.97s1.99-.96,1.97-2.04c-.02-1.11-.95-1.97-2.04-1.97Z"
          /><path
            class="cls-7"
            d="M132.32,64.6c-.37-.12-.48,.43-.15,.56,2.14,.84,2.88,2.83,4.31,4.41,.25,.28,.8-.03,.64-.39-.84-1.99-2.73-3.92-4.81-4.58Z"
          /><path
            class="cls-7"
            d="M142.96,80.28c-.5,0-.49,.78,.01,.78s.49-.78-.01-.78Z"
          /><path
            class="cls-7"
            d="M144.68,84.78c-.99,.13-1.87,.77-1.87,1.87,0,.53-.06,1.09,.23,1.56,.27,.44,.79,.78,1.32,.77,1.05-.02,1.63-1.02,1.86-1.93,.21-.83-.47-2.41-1.54-2.27Z"
          /><path
            class="cls-7"
            d="M119.36,81.44s-.04-.07-.05-.11c-.05-.16-.12-.3-.22-.44-.01-.02-.03-.04-.04-.06-.09-.13-.21-.24-.35-.35-.04-.03-.08-.07-.13-.1-.05-.03-.08-.07-.12-.1l-.05-.02,.03,.05c-.29-.16-.62-.27-.99-.29-.67-.03-1.29,.41-1.62,.96l-.03,.04c-.89,1.48,.64,3.29,2.24,2.81,.8-.24,1.28-.94,1.36-1.68,.04-.23,.03-.48-.05-.74Z"
          /><path
            class="cls-7"
            d="M111.17,78.81c-1.5,0-1.46,2.33,.04,2.33s1.46-2.33-.04-2.33Z"
          /><path
            class="cls-7"
            d="M91.33,95.61l-.17,.02c-.76,.07-.72,1.09,.02,1.17l.17,.02c.76,.07,.76-1.28-.02-1.2Z"
          /><path
            class="cls-7"
            d="M91.9,102.06c-.86-.22-1.91,.48-1.82,1.44,.09,.89,.53,2.03,1.53,2.21,.57,.1,1.08-.27,1.09-.86,0-.34-.08-.4,.1-.66,.56-.78-.07-1.91-.91-2.12Z"
          /></g></g><g><path
          class="cls-9"
          d="M66.93,61.93c-.13-.68-.35-1.4-.66-2.23-2.05,6.87-7.95,13.78-14.35,16.98-.66,.33-1.47,1.01-1.07,1.63,.35,.55,1.2,.29,1.77-.03,5.84-3.31,9.67-5.03,13.12-11.03,1.21-2.11,1.52-3.56,1.18-5.32Z"
        /><path
          class="cls-8"
          d="M66.27,57.29c.72,3.66-.05,7.29-1.74,11.05-1.76,3.9-6.96,6.62-10.4,8.87,1.06,3.43,10.08-4.73,10.96-6.04,2.59-3.81,6.08-14.53,.13-17.15,.49,1.1,.84,2.18,1.05,3.27Z"
        /></g><g><path
          class="cls-17"
          d="M26.85,34.92c-.38-1.02-1.23-1.76-2.37-1.74-3.26,.06-3.95,4.55-2.73,6.91,1.08,2.1,3.85,2.56,5.19,.48,1-1.56,.51-4.04-.09-5.65Z"
        /><path
          class="cls-4"
          d="M23.31,33.76c-.51-.14-1.09-.02-1.39,.55-.66,1.26,.89,2.18,1.89,1.37,.98-.79,.33-1.7-.5-1.93Z"
        /></g><g><path
          class="cls-17"
          d="M44.8,34.92c-.38-1.02-1.23-1.76-2.37-1.74-3.26,.06-3.95,4.55-2.73,6.91,1.08,2.1,3.85,2.56,5.19,.48,1-1.56,.51-4.04-.09-5.65Z"
        /><path
          class="cls-4"
          d="M41.27,33.76c-.51-.14-1.09-.02-1.39,.55-.66,1.26,.89,2.18,1.89,1.37,.98-.79,.33-1.7-.5-1.93Z"
        /></g><path
        class="cls-8"
        d="M175.92,128.18c-1.11-1.52-4.62-.8-6.15-.77-2.6,.06-5.21,.22-7.8,.02-1.55-.12-3.3-.04-4.81-.43-1.71-.44-7.37-3.65-8.69-1.96-2.78,3.57,8.1,3.47,9.69,3.72,3.69,.59,7.37,1.14,11.11,1.09,.8-.01,3.35-.64,2.18,.67-.82,.92-3.02,1.6-4.14,2.16-2.96,1.48-6.01,2.77-9.14,3.84-6.31,2.15-12.91,3.36-19.56,3.83-12.68,.88-25.36-2.41-37.93-.03-6.08,1.15-11.59,4.92-17.16,7.38-7.26,3.21-15.42,3.72-23.24,3.57-11.14-.21-21.48-2.21-31.8-6.51-3.67-1.53-7.5-3.16-10.08-6.32-3.2-3.92-5.82-8.37-7.34-13.2-2.84-9.01-.59-17.69,2.23-26.37,.81-2.5,1.6-5.01,2.09-7.6,.14-.74,.35-6.45,.9-6.51,.1-.01,.19,.04,.28,.1,.49,.31,.98,.66,1.54,.81,.56,.15,1.24,.05,1.6-.4-2.96-.6-3.59-3.37-4.88-5.63-.41-.71-1.01-1.28-1.7-1.62,.04-.18-.01-.37-.23-.47C5.38,74.03,.09,70.27,1.55,60.9c.97-6.25,6.04-10.02,11.74-11.84,2.93-.93,5.99-1.42,9.05-1.67,1.99-.16,4.17,.29,6.1-.37,3.01-1.03,2.91-4.09,2.71-6.82-.04-.59-1.04-4.64-.8-4.88,.03-.03,.06-.05,.09-.08,.97-1.35,2.5-1.18,3.81-.57,.32,.15,.65,.09,.91-.06-.69,.39-1,4.2-1.03,4.97-.08,1.85,.06,4.15,1.12,5.82,1.36,2.14,3,2.11,5.25,1.91,3.77-.32,7.58-.48,11.35-.08,7.68,.82,14.51,4.6,14.88,13.09,.12,2.81-1.42,6.44-2.9,8.8-1.67,2.68-4.23,4.63-6.82,6.35-1.09,.72-2.12,1.16-3.07,1.98-1.86,1.59-4.08,2.63-5.83,4.3-.23,.22-.45,.45-.65,.69-.76,.9-1.51,2.05-2.69,2.15-.14,.34,.26,.67,.62,.76,.68,.17,1.45-.02,1.97-.49,.14-.13,.28-.28,.46-.34,.34-.12,.72,.14,.87,.47,.38,.87-.15,2.46-.13,3.42,.01,.85-.41,7.29,1.91,5.13,1.94-1.8-2.05-7.29-.62-10.39,.74-1.6,2.86-3.27,4.34-4.21,1.58-1,3.3-1.78,4.87-2.8,5.69-3.7,10.15-10.46,9.41-17.54-1-9.58-11.14-13.45-19.51-12.54,.69-3.58,.81-7.54-.23-11.06-.5-1.7-1.74-3.11-1.84-4.88-.12-2.1,1.13-4.22,2.13-5.97,1.75-3.06,3.5-6.12,5.24-9.18,.43-.76,.94-1.57,1.77-1.83,.63-.19,1.31-.02,1.96,.08,2.38,.35,4.92-.47,6.57-2.2C68.11,7.32,66.31,.1,60.63,0c-2.27-.04-4.54,1.2-6.04,2.85-1.92,2.11-2.04,5.34-3.04,7.86-.19,.47-.43,.92-.67,1.36-2,3.71-4.05,7.35-5.62,11.22-1.12,2.74-2.88,4.73-5.51,6.08-2.08,1.07-2.57,2.55-3.92,4.12-1.81-1.42-4.2-1.5-5.94,.22-.05-.16-.09-.33-.14-.48-.51-1.56-1.6-1.97-2.45-3.14-.96-1.33-1.35-3.64-1.84-5.2-1.15-3.62-2.08-7.3-2.8-11.03-.81-4.25-1.27-9.94-6.08-11.7-1.3-.47-3.43-.33-4.66,.28-4.24,2.1-4.38,8.73-1.2,11.81,1.33,1.28,2.92,1.62,4.72,1.63,.73,0,1.76,0,2.52-.3,1.6,1.82,2.42,5.17,3.16,7.43,.73,2.22,1.2,4.52,1.62,6.82-1.33,.38-2.63,1.1-3.7,2.08-2.48,2.29-2.63,5.52-3,8.65-.16,1.35,.31,4.54-.21,5.57-.83,1.63-3.99,1.31-5.46,1.91-1.98,.81-3.78,2.04-5.3,3.55C2.14,54.53,.32,58.55,.04,62.72c-.28,4.02,.92,8.11,3.7,11.09,1.57,1.69,3.48,2.77,5.56,3.69,2.52,1.12,4.51,3.31,5.17,6.07,.78,3.3-.55,5.97-1.51,9.02-.94,3.01-1.9,6.01-2.71,9.06-1.61,6.04-2.67,12.3-1.93,18.56,.83,6.98,3.98,14.75,9.16,19.65,5.72,5.42,12.85,7.73,20.32,9.72,4.25,1.14,8.45,2.17,12.83,2.67,15.45,1.78,28.16,.11,42.07-6.81,14.96-7.44,32.17-2,48.16-3.04,1.4-.09,2.8-.22,4.19-.38,7.9-.91,15.78-2.93,22.91-6.52,1.76-.89,3.48-1.87,5.12-2.96,1.18-.78,3.23-1.68,3.18-3.3-.01-.45-.14-.8-.34-1.08ZM47.81,19.85c.9-1.62,1.8-3.22,2.63-4.81,.71-1.38,1.43-2.77,2.01-4.21,.78-1.92,1.32-3.96,2.39-5.73,1.87-3.1,5.63-4.7,8.6-2,1.42,1.29,1.76,2.68,1.3,4.55-.51,2.12-2.32,3.57-4.38,4.04-1.84,.43-3.27-.25-5.05-.45-.11-.01-.24-.02-.34,.04-.13,.08-.18,.25-.22,.41-.41,1.59-1.55,2.6-2.41,3.91-1.07,1.63-1.84,3.53-2.68,5.28-1.14,2.37-2.11,5.05-3.51,7.28-.56,.88-.35,1.34-1.35,1.18-.16-.02-1.22-.74-1.22-.92,1.1-2.91,2.65-5.75,4.21-8.56Zm-6.94,10.58c6.29-1.12,6.98,7.41,6.97,11.73,0,.78-.06,1.58-.41,2.28-1.19,2.33-7.28,2.69-9.34,1.59-.68-.36-1.2-.9-1.61-1.54-.65-1.02-.99-2.28-1.13-3.42-.45-3.54,1.35-9.89,5.52-10.63Zm-19.84-10.52c-.52-1.28-1.1-2.52-1.75-3.74-.29-.54-.59-1.22-.27-1.74,.16-.26,.46-.53,.32-.79-2.67,.99-6.11,2.24-8.24-.56-1.25-1.64-1.36-4.51-.8-6.84,.58-1.29,1.33-2.29,2.85-2.74,1.56-.46,3.42-.06,4.58,1.05,1.99,1.9,2.54,4.85,3.16,7.39,.01,.06,.04,.11,.07,.15-.07,.08-.11,.17-.08,.3,.92,3.32,1.7,6.68,2.69,9.98,.49,1.65,1.19,3.24,1.67,4.89,.18,.64,.63,3.24-1.1,2.02-.56-.39-.71-1.14-.84-1.8-.5-2.58-1.26-5.11-2.25-7.55Zm-1.01,13.21c.33-.42,.69-.83,1.14-1.12,4.41-2.76,7.19,.56,8.07,4.69,.37,1.73,.41,3.49,.4,5.25-.02,4.26-2.95,4.07-6.42,4.19-3.94,.14-5.5-2.41-5.6-5.45-.09-2.63,.91-5.63,2.41-7.57Z"
      /><g><path
          class="cls-15"
          d="M38.77,76.81c-.06-.13-.13-.26-.23-.38-2.28,1.25-4.75,1.93-7.36,1.17-1.12-.33-2.35-.88-3.39-.34-3.94,2.01,3.54,5.37,5.14,5.42,2.25,.07,7.02-3.3,5.84-5.87Z"
        /><path
          class="cls-8"
          d="M42.76,95.62c-1.64,0-2.99,1.44-2.96,3.06,.03,1.66,1.42,2.96,3.06,2.96s2.99-1.44,2.96-3.06c-.03-1.66-1.42-2.96-3.06-2.96Z"
        /><path
          class="cls-8"
          d="M44.15,107.5c-1.38,0-2.5,1.21-2.48,2.57,.02,1.39,1.19,2.48,2.57,2.48s2.5-1.21,2.48-2.57c-.02-1.39-1.19-2.48-2.57-2.48Z"
        /><path
          class="cls-8"
          d="M57.97,117.64c-1.56-1.28-3.2-2.45-4.83-3.65-1.19-.87-2.76,.88-1.96,2.03,1.05,1.51,2.08,3.03,3.21,4.48,.63,.81,1.56,1.36,2.63,1.02,.88-.29,1.29-.79,1.58-1.64,.25-.71-.05-1.76-.63-2.24Z"
        /><path
          class="cls-8"
          d="M75,128.01c-.85,.57-1.7,1.15-2.54,1.72-.51,.35-.49,1.29,.21,1.42l2.87,.52c1.27,.23,2.53-.6,2.5-1.98-.03-1.46-1.77-2.54-3.05-1.68Z"
        /><path
          class="cls-8"
          d="M87.67,127.67c-2.63,0-2.56,4.08,.07,4.08s2.56-4.08-.07-4.08Z"
        /><path
          class="cls-9"
          d="M51.71,70.43l-.14-.02c-.64-.1-1.44-.03-1.88,.53-.3,.38-.5,.62-.97,.76-.91,.27-1,1.48-.22,1.96,.97,.59,2.03,.68,3.13,.49,.61-.11,1.22-.78,1.33-1.38l.03-.16c.16-.89-.27-2.01-1.28-2.17Z"
        /><path
          class="cls-9"
          d="M58.67,65.3c-2.01,0-1.95,3.11,.05,3.11s1.95-3.11-.05-3.11Z"
        /><path
          class="cls-9"
          d="M7.36,67.85l-.21-.26c-1.07-1.29-3.15-.12-3.13,1.36,.03,1.52,2.11,2.53,3.17,1.25l.2-.25c.56-.68,.51-1.44-.04-2.11Z"
        /><path
          class="cls-9"
          d="M11.02,72c-1.38,0-1.34,2.14,.04,2.14s1.34-2.14-.04-2.14Z"
        /><path
          class="cls-9"
          d="M19.87,76.91c-.44-.73-1.1-1.11-1.83-1.23-1.3-.71-3.21,.13-3.1,1.79-.76,2.22,1.78,4.58,4.02,3.21,1.28-.78,1.7-2.5,.92-3.77Z"
        /><path
          class="cls-9"
          d="M34.16,98.2c-1.38,0-2.5,1.21-2.48,2.57,.02,1.39,1.19,2.48,2.57,2.48s2.5-1.21,2.48-2.57c-.02-1.39-1.19-2.48-2.57-2.48Z"
        /><path
          class="cls-9"
          d="M50.11,121.74c-.11-.01-.22-.03-.33-.04l-.15,.02c-.34-.28-.86-.31-1.09,.2-.59,1.31,1.45,1.96,2,.8,.17-.35,.04-.93-.42-.99Z"
        /><path
          class="cls-9"
          d="M65.98,128.93c-1.16,.04-2.21,.58-2.8,1.6-.54,.95,.4,2.16,1.46,1.83,.06-.02,.09-.03,.12-.03,.94,.73,2.33,.59,2.94-.51,.71-1.26-.25-2.94-1.72-2.89Z"
        /><path
          class="cls-9"
          d="M95.97,131.57c-2.51,0-2.44,3.88,.07,3.88s2.44-3.88-.07-3.88Z"
        /><g><path
            class="cls-15"
            d="M51.63,15.03c-1.41,1.65-2.29,3.77-3.31,5.68-1.16,2.18-2.29,4.38-3.4,6.59-.22,.43,.43,.8,.66,.37,1.16-2.18,2.34-4.35,3.54-6.51,1.05-1.89,2.4-3.75,3.08-5.81,.11-.32-.36-.57-.57-.32Z"
          /><path
            class="cls-15"
            d="M20.83,16.77c.1,3.46,1.77,7.79,3.29,10.87,.2,.41,.76,.09,.69-.3-.62-3.15-1.96-6.26-2.85-9.33-.17-.58-.52-1.3-1.12-1.23Z"
          /><path
            class="cls-15"
            d="M17.01,6.9c-.91-1.75-2.42-3.03-3.91-2.31-3.04,1.47-3.24,5.76-.82,7.93,4.13,3.69,6.58-2.03,4.73-5.61Z"
          /><path
            class="cls-15"
            d="M62.94,4.14c-.11-.1-.24-.19-.36-.28-2.45-1.64-5.36-.43-6.6,2.11-.52,1.06-.17,2.43,.69,3.24s2.15,1.07,3.31,.83,2.18-.96,2.95-1.85c.55-.64,1.01-1.45,.95-2.29-.05-.68-.42-1.3-.94-1.75Z"
          /><path
            class="cls-1"
            d="M61.14,4.29c-.23-.5-.85-.6-1.32-.51-1.52,.28-2.66,1.41-2.81,2.95-.04,.44,.07,.85,.27,1.21,.03,.17,.05,.35,.12,.51,.22,.53,.7,.76,1.21,.61,.46,.18,.97,.25,1.44,.13,.33-.09,.67-.41,.73-.76l.08-.45c.12-.17,.24-.35,.33-.55,.47-1.05,.42-2.12-.05-3.15Z"
          /><path
            class="cls-1"
            d="M14.71,9.88c.14-.79-.13-1.45-.39-2.2-.34-.99-1.46-1.2-2.22-.54-1.07,.93-1.4,2.32-1.11,3.67,.09,.44,.5,.75,.9,.87,.46,.14,.92,.28,1.37,.43,.81,.25,1.5-.46,1.54-1.21,.02-.34-.02-.68-.1-1.01Z"
          /><path
            class="cls-1"
            d="M8.5,54.61c-.55-.43-1.35-.54-1.87,.03-.9,.99-1.55,2.12-1.96,3.39-.17,.53,.23,1.29,.8,1.36,.85,.11,1.82,.06,2.46-.59,.24-.25,.4-.55,.5-.86,.41-.13,.69-.46,.85-.88,.34-.88-.04-1.88-.77-2.45Z"
          /><path
            class="cls-1"
            d="M59.21,53.28c-.2-.11-.41-.14-.61-.12-.06-.02-.11-.06-.17-.08-.24-.09-.56,.03-.72,.2-.35,.37-.46,.85-.4,1.31-.06,.33-.07,.67,0,1.02,.03,.17,.1,.31,.2,.43,0,.04,0,.07,0,.05,0,.15,.06,.31,.13,.43,.28,.46,.8,.6,1.31,.52,.82-.14,1.24-1.1,1.29-1.84,.06-.8-.32-1.53-1.01-1.93Z"
          /><path
            class="cls-1"
            d="M32.83,79.15c-.35,.55-1.31,.53-1.8,.22-.49-.32-1.04,.32-.76,.79,.97,1.61,3.12,1.24,4.08-.16,.63-.92-.91-1.79-1.51-.85Z"
          /></g></g></g></g></svg>
